<?xml version="1.0" encoding="UTF-8"?><svg version="1.1" viewBox="0 0 285 285" xmlns="http://www.w3.org/2000/svg" xmlns:xlink="http://www.w3.org/1999/xlink"><g transform="matrix(1.00025 0 0 1.00025 0 0)"><path fill="#000" d="M282.082 76.511l-14.274-14.273c-1.902-1.906-4.093-2.856-6.57-2.856 -2.471 0-4.661.95-6.563 2.856l-112.209 112.203 -112.204-112.2c-1.903-1.906-4.093-2.856-6.567-2.856 -2.475 0-4.665.95-6.567 2.856l-14.272 14.274c-1.906 1.902-2.856 4.092-2.856 6.567 0 2.473.953 4.663 2.856 6.565l133.043 133.046c1.902 1.903 4.093 2.854 6.567 2.854 2.474 0 4.661-.951 6.562-2.854l133.054-133.046c1.902-1.903 2.847-4.093 2.847-6.565 0-2.475-.945-4.665-2.847-6.571Z"></path></g></svg>